<?xml version="1.0" encoding="UTF-8"?>
<svg version="1.1" xmlns="http://www.w3.org/2000/svg" width="500" height="500">
<path d="M0 0 C1.36125 1.11375 1.36125 1.11375 2.75 2.25 C2.75 2.91 2.75 3.57 2.75 4.25 C3.348125 4.4975 3.94625 4.745 4.5625 5 C7.06626919 6.43072525 8.23072388 7.8191582 9.75 10.25 C9.75 10.91 9.75 11.57 9.75 12.25 C10.41 12.25 11.07 12.25 11.75 12.25 C21.18111507 29.71694189 24.44603542 45.40307042 18.91796875 64.91015625 C17.77001224 68.19277436 16.32959969 71.15754427 14.75 74.25 C14.1923581 77.78173202 14.83864267 79.46208074 16.24145508 82.81835938 C18.02657309 87.50182912 18.22360774 91.80909942 18.26171875 96.78125 C18.27966995 97.65777222 18.29762115 98.53429443 18.31611633 99.43737793 C18.36984509 102.20820453 18.40399373 104.97886265 18.4375 107.75 C18.47070621 109.64064826 18.50519888 111.53127439 18.54101562 113.421875 C18.62554955 118.03112765 18.69253791 122.6403336 18.75 127.25 C19.37068359 127.4368335 19.99136719 127.62366699 20.63085938 127.81616211 C21.84999023 128.19913452 21.84999023 128.19913452 23.09375 128.58984375 C23.90005859 128.83855225 24.70636719 129.08726074 25.53710938 129.34350586 C29.33095609 130.89762687 30.98017803 133.71035606 32.75 137.25 C32.98832053 139.8803525 33.17436804 142.48912397 33.3125 145.125 C33.3542334 145.89150879 33.3959668 146.65801758 33.43896484 147.44775391 C33.7605587 153.72080314 33.94379965 159.96912948 33.75 166.25 C33.72164062 167.24128906 33.69328125 168.23257813 33.6640625 169.25390625 C33.35622715 174.7582954 33.02704214 178.35034393 28.75 182.25 C25.84907498 184.18395001 24.85325263 184.55131941 21.5625 184.875 C20.304375 184.99875 19.04625 185.1225 17.75 185.25 C17.77094727 186.26312256 17.79189453 187.27624512 17.81347656 188.32006836 C17.8864467 192.11630855 17.93200435 195.91248811 17.96972656 199.70922852 C17.98971332 201.34540264 18.01691243 202.98150651 18.05175781 204.61743164 C18.27916785 215.57658902 17.82478733 223.19603025 11.5625 232.5 C4.59995067 239.30782601 -2.48791556 241.36673606 -12.05474854 241.39044189 C-12.72645671 241.39341302 -13.39816488 241.39638414 -14.09022784 241.3994453 C-16.33392767 241.40809497 -18.57757391 241.40963737 -20.82128906 241.41113281 C-22.43302015 241.41576363 -24.04475015 241.42078865 -25.65647888 241.42617798 C-30.03061413 241.43927863 -34.40473405 241.44574239 -38.77888584 241.45018864 C-41.51391619 241.45312317 -44.24894239 241.4572287 -46.98397064 241.46169281 C-55.54777101 241.47536166 -64.11156184 241.48503128 -72.67537236 241.4888947 C-82.54892101 241.49337392 -92.42233111 241.51091807 -102.29583764 241.5398953 C-109.93593383 241.56153671 -117.57599111 241.5716003 -125.21611762 241.57293582 C-129.77544216 241.57398209 -134.33463636 241.57985206 -138.89392853 241.59775543 C-143.18510795 241.61427867 -147.47605963 241.61637107 -151.7672596 241.60761642 C-153.33734562 241.60684832 -154.90744411 241.61115876 -156.47749901 241.62107468 C-167.05058196 241.68390512 -176.55264897 241.59254816 -184.6796875 234.0703125 C-187.48970409 230.81293009 -189.38454771 227.10424028 -191.25 223.25 C-191.58 222.59 -191.91 221.93 -192.25 221.25 C-193.74189186 206.88908367 -193.41359321 192.35006768 -193.41796875 177.93359375 C-193.42118895 175.42114748 -193.42455357 172.90870139 -193.42805481 170.39625549 C-193.43400327 165.16447514 -193.43589879 159.93271122 -193.43530273 154.70092773 C-193.43521071 148.67324627 -193.44532712 142.64567006 -193.4610464 136.61801189 C-193.4757279 130.77727238 -193.47929026 124.93656794 -193.47869301 119.09581184 C-193.47987013 116.62672625 -193.48427685 114.15763993 -193.49202538 111.68856621 C-193.50183866 108.24339253 -193.49894343 104.79844898 -193.49291992 101.35327148 C-193.49853943 100.34275726 -193.50415894 99.33224304 -193.50994873 98.29110718 C-193.46859832 88.96869861 -192.13194128 80.28546145 -185.38671875 73.328125 C-174.35702637 63.27469541 -160.29393189 65.08564518 -146.20703125 64.93359375 C-144.58607003 64.91297632 -142.96511361 64.89197877 -141.34416199 64.87062073 C-137.11436897 64.81589373 -132.8845315 64.76627053 -128.65466309 64.71777344 C-124.32377246 64.66719369 -119.99294496 64.61169964 -115.66210938 64.55664062 C-107.19145991 64.44966465 -98.72075701 64.34808986 -90.25 64.25 C-90.46194 63.50157333 -90.67388 62.75314667 -90.89224243 61.98204041 C-91.16708466 60.99659744 -91.44192688 60.01115448 -91.72509766 58.99584961 C-91.99891266 58.02054794 -92.27272766 57.04524628 -92.55484009 56.04039001 C-96.39070659 40.64312185 -91.05395298 25.40523503 -83.25 12.25 C-81.68229681 10.0942575 -80.07135123 8.213737 -78.25 6.25 C-77.59 6.25 -76.93 6.25 -76.25 6.25 C-76.25 5.59 -76.25 4.93 -76.25 4.25 C-53.67361148 -15.1931635 -24.68189237 -16.71839603 0 0 Z M-39 20.375 C-43.04174073 25.53944649 -44.86523006 29.51291536 -44.58984375 36.078125 C-43.90988819 40.42358815 -41.78444726 42.99181982 -38.44921875 45.7265625 C-34.01053692 48.81209278 -30.75085904 50.11855669 -25.25 49.25 C-20.09611009 47.81688035 -16.28897431 45.96331147 -13.1875 41.5 C-11.04791793 37.46685052 -10.19172921 33.74345135 -11.25 29.25 C-12.83929031 25.35185881 -14.47175463 21.52887509 -17.9609375 19.01953125 C-23.77157695 17.06612515 -33.91356876 16.36007585 -39 20.375 Z " fill="#263C46" transform="translate(337.25,123.75)"/>
<path d="M0 0 C1.36125 1.11375 1.36125 1.11375 2.75 2.25 C2.75 2.91 2.75 3.57 2.75 4.25 C3.348125 4.4975 3.94625 4.745 4.5625 5 C7.06626919 6.43072525 8.23072388 7.8191582 9.75 10.25 C9.75 10.91 9.75 11.57 9.75 12.25 C10.41 12.25 11.07 12.25 11.75 12.25 C21.18111507 29.71694189 24.44603542 45.40307042 18.91796875 64.91015625 C17.76989912 68.19309783 16.38001654 71.18145883 14.75 74.25 C14.09 74.25 13.43 74.25 12.75 74.25 C12.51152344 74.96414062 12.27304687 75.67828125 12.02734375 76.4140625 C7.02342063 87.52368998 -4.36227809 94.79067831 -15.125 99.5625 C-21.00252523 101.7713119 -27.04496553 102.45786794 -33.25 103.25 C-33.91 107.87 -34.57 112.49 -35.25 117.25 C-38.3317634 116.22274553 -41.41326722 115.18597364 -44.4375 114 C-45.365625 113.7525 -46.29375 113.505 -47.25 113.25 C-48.24 113.91 -49.23 114.57 -50.25 115.25 C-50.83592634 118.36610554 -50.83592634 118.36610554 -50.9375 121.875 C-51.00324219 123.06351563 -51.06898438 124.25203125 -51.13671875 125.4765625 C-51.17410156 126.39179688 -51.21148437 127.30703125 -51.25 128.25 C-53.6863189 128.92126129 -56.12388883 129.58716354 -58.5625 130.25 C-59.25279297 130.44078125 -59.94308594 130.6315625 -60.65429688 130.828125 C-63.60787949 131.62716184 -66.17559219 132.25 -69.25 132.25 C-69.1778125 132.87003906 -69.105625 133.49007812 -69.03125 134.12890625 C-68.18558138 142.19799438 -68.15157389 150.14625007 -68.25 158.25 C-70.83122508 159.09039886 -73.41463901 159.92250556 -76 160.75 C-76.72960937 160.98847656 -77.45921875 161.22695313 -78.2109375 161.47265625 C-78.91992188 161.69824219 -79.62890625 161.92382812 -80.359375 162.15625 C-81.00874023 162.36572266 -81.65810547 162.57519531 -82.32714844 162.79101562 C-84.25 163.25 -84.25 163.25 -88.25 163.25 C-87.92 171.83 -87.59 180.41 -87.25 189.25 C-93.74478221 191.84791288 -99.93352734 194.21009062 -106.625 196.0625 C-107.40488281 196.29130859 -108.18476563 196.52011719 -108.98828125 196.75585938 C-109.74238281 196.96662109 -110.49648437 197.17738281 -111.2734375 197.39453125 C-111.94294434 197.58378174 -112.61245117 197.77303223 -113.30224609 197.96801758 C-115.54754942 198.29307716 -117.10274248 197.92853817 -119.25 197.25 C-118.70214844 196.32445312 -118.15429688 195.39890625 -117.58984375 194.4453125 C-110.37403081 182.22902682 -103.28580204 169.94023913 -96.20556641 157.64501953 C-92.44118307 151.10974928 -88.67113136 144.57774641 -84.90039062 138.04614258 C-81.9806633 132.98766126 -79.06345497 127.92778158 -76.15567017 122.86242676 C-74.78825234 120.48076498 -73.41932961 118.0999698 -72.05029297 115.71923828 C-71.08935447 114.04673979 -70.13058328 112.37299664 -69.171875 110.69921875 C-64.32441885 102.27210268 -64.32441885 102.27210268 -61.82421875 98.640625 C-60.06667755 96.44866892 -60.06667755 96.44866892 -60.25 94.25 C-62.56 92.93 -64.87 91.61 -67.25 90.25 C-67.51031006 91.1177002 -67.77062012 91.98540039 -68.03881836 92.87939453 C-69.26297192 96.28609964 -70.76002429 99.08462507 -72.62890625 102.1796875 C-73.29809082 103.29625732 -73.96727539 104.41282715 -74.65673828 105.56323242 C-75.00867249 106.14462982 -75.36060669 106.72602722 -75.72320557 107.32504272 C-77.56574424 110.36966573 -79.38915922 113.42572044 -81.21484375 116.48046875 C-81.57263916 117.07803482 -81.93043457 117.67560089 -82.29907227 118.29127502 C-84.89596911 122.63512639 -87.4222839 127.01096856 -89.875 131.4375 C-94.02651835 138.9120298 -98.33761334 146.28984864 -102.65649414 153.66870117 C-105.8914298 159.1988365 -109.11331258 164.73594535 -112.30859375 170.2890625 C-112.64439453 170.87247406 -112.98019531 171.45588562 -113.32617188 172.05697632 C-114.94887004 174.87712093 -116.56958855 177.69838225 -118.18798828 180.52099609 C-121.43611464 186.17033653 -124.75346008 191.75071604 -128.25 197.25 C-130.85617157 192.53045773 -131.49288456 187.5675628 -132.4375 182.3125 C-132.62763672 181.32314453 -132.81777344 180.33378906 -133.01367188 179.31445312 C-133.18833984 178.35603516 -133.36300781 177.39761719 -133.54296875 176.41015625 C-133.7030542 175.54011963 -133.86313965 174.67008301 -134.02807617 173.77368164 C-134.45638218 168.90305542 -133.05515753 165.50244391 -130.66015625 161.328125 C-130.1285791 160.39444092 -129.59700195 159.46075684 -129.04931641 158.4987793 C-128.47616699 157.50918213 -127.90301758 156.51958496 -127.3125 155.5 C-126.42570557 153.95082886 -126.42570557 153.95082886 -125.52099609 152.37036133 C-121.79641618 145.87928146 -118.02794408 139.41385566 -114.21240234 132.97583008 C-109.57124737 125.138408 -105.04445329 117.23461159 -100.51416016 109.33276367 C-99.90491699 108.2729126 -99.29567383 107.21306152 -98.66796875 106.12109375 C-98.08837402 105.11030762 -97.5087793 104.09952148 -96.91162109 103.05810547 C-95.06280569 99.93364547 -93.08224318 96.9221448 -90.9934082 93.95336914 C-90.07365263 92.23700885 -90.07365263 92.23700885 -90.49682617 90.16577148 C-91.51344857 87.57989272 -93.27316802 86.16306321 -95.25 84.25 C-95.25 83.59 -95.25 82.93 -95.25 82.25 C-91.62 80.27 -87.99 78.29 -84.25 76.25 C-84.91 74.27 -85.57 72.29 -86.25 70.25 C-115.29 70.25 -144.33 70.25 -174.25 70.25 C-173.92 69.26 -173.59 68.27 -173.25 67.25 C-145.2 67.25 -117.15 67.25 -88.25 67.25 C-88.25 66.26 -88.25 65.27 -88.25 64.25 C-88.91 64.25 -89.57 64.25 -90.25 64.25 C-95.38971903 49.53449491 -94.41094555 34.76214648 -87.77954102 20.72485352 C-85.1211722 15.28829198 -82.35715949 10.67824036 -78.25 6.25 C-77.59 6.25 -76.93 6.25 -76.25 6.25 C-76.25 5.59 -76.25 4.93 -76.25 4.25 C-53.67361148 -15.1931635 -24.68189237 -16.71839603 0 0 Z M-39 20.375 C-43.04174073 25.53944649 -44.86523006 29.51291536 -44.58984375 36.078125 C-43.90988819 40.42358815 -41.78444726 42.99181982 -38.44921875 45.7265625 C-34.01053692 48.81209278 -30.75085904 50.11855669 -25.25 49.25 C-20.09611009 47.81688035 -16.28897431 45.96331147 -13.1875 41.5 C-11.04791793 37.46685052 -10.19172921 33.74345135 -11.25 29.25 C-12.83929031 25.35185881 -14.47175463 21.52887509 -17.9609375 19.01953125 C-23.77157695 17.06612515 -33.91356876 16.36007585 -39 20.375 Z " fill="#BBC9CB" transform="translate(337.25,123.75)"/>
<path d="M0 0 C1.08462524 -0.01283524 2.16925049 -0.02567047 3.28674316 -0.03889465 C4.44830933 -0.04628159 5.60987549 -0.05366852 6.80664062 -0.0612793 C8.60941467 -0.07338692 8.60941467 -0.07338692 10.4486084 -0.08573914 C12.98704598 -0.09955201 15.52550191 -0.11028663 18.06396484 -0.11816406 C21.94859637 -0.1354345 25.83238924 -0.17935391 29.71679688 -0.22338867 C32.18423854 -0.23351115 34.65168743 -0.24202864 37.11914062 -0.2487793 C38.86148987 -0.27504143 38.86148987 -0.27504143 40.63903809 -0.30183411 C48.72513131 -0.28002343 48.72513131 -0.28002343 52.734375 2.20361328 C53.30478516 2.85483154 53.87519531 3.5060498 54.46289062 4.17700195 C54.29700439 5.00135742 54.13111816 5.82571289 53.96020508 6.67504883 C53.40912533 10.55560252 53.40927539 14.30446834 53.50585938 18.20825195 C53.52823916 19.75641635 53.54969548 21.30459433 53.5703125 22.8527832 C53.60741347 25.26901486 53.65057523 27.68454276 53.7097168 30.1003418 C53.76440696 32.44891399 53.79334243 34.79670043 53.81835938 37.14575195 C53.85403267 38.21944031 53.85403267 38.21944031 53.89042664 39.31481934 C53.91682151 44.40643263 52.73850272 47.30344015 49.46289062 51.17700195 C46.20917518 52.26157377 43.85389742 52.29747053 40.4309082 52.29052734 C39.18984818 52.29045181 37.94878815 52.29037628 36.67012024 52.29029846 C35.31588704 52.28519186 33.96165426 52.27997586 32.60742188 52.2746582 C31.22165477 52.27279279 29.83588701 52.27136947 28.45011902 52.27037048 C24.80541153 52.26655505 21.16074397 52.25673308 17.51605225 52.2456665 C13.79586324 52.23543145 10.07566778 52.23086837 6.35546875 52.22583008 C-0.94207549 52.21510994 -8.23958683 52.1980452 -15.53710938 52.17700195 C-16.19710938 50.85700195 -16.85710937 49.53700195 -17.53710938 48.17700195 C-18.19710938 48.17700195 -18.85710937 48.17700195 -19.53710938 48.17700195 C-22.05496396 41.33412297 -21.97680039 34.53154139 -22.03710938 27.30200195 C-22.07835937 26.07352539 -22.11960937 24.84504883 -22.16210938 23.5793457 C-22.23143935 15.49373769 -21.11897925 10.20072944 -15.53710938 4.17700195 C-10.7907895 0.47255717 -5.88105977 0.06088473 0 0 Z " fill="#283E48" transform="translate(313.537109375,252.822998046875)"/>
<path d="M0 0 C0.33 0 0.66 0 1 0 C5.51287688 11.23155865 5.65859864 21.87611982 5.75 33.8125 C5.7782199 35.68036545 5.8081555 37.5482058 5.83984375 39.41601562 C5.91298645 43.94396442 5.96299455 48.47161762 6 53 C7.32 53.66 8.64 54.32 10 55 C9.36408432 55.00808685 8.72816864 55.01617371 8.07298279 55.02450562 C1.43769777 55.11074881 -5.19729529 55.21026079 -11.83227539 55.31738281 C-14.30650926 55.35559992 -16.78079731 55.39046533 -19.25512695 55.421875 C-22.81741665 55.46768303 -26.37933569 55.52565242 -29.94140625 55.5859375 C-31.04271378 55.59748871 -32.1440213 55.60903992 -33.27870178 55.62094116 C-43.30599152 55.68580879 -43.30599152 55.68580879 -51.75 60.5 C-52.4925 61.325 -53.235 62.15 -54 63 C-55.485 63.99 -55.485 63.99 -57 65 C-57.12375 64.195625 -57.2475 63.39125 -57.375 62.5625 C-57.58125 61.716875 -57.7875 60.87125 -58 60 C-58.66 59.67 -59.32 59.34 -60 59 C-60.33 59.66 -60.66 60.32 -61 61 C-61.33 59.68 -61.66 58.36 -62 57 C-63.485 57.495 -63.485 57.495 -65 58 C-67.1875 57.0625 -67.1875 57.0625 -69 56 C-68.67 55.34 -68.34 54.68 -68 54 C-66.68 54 -65.36 54 -64 54 C-64.04640625 53.09636719 -64.0928125 52.19273437 -64.140625 51.26171875 C-64.17671875 50.08222656 -64.2128125 48.90273437 -64.25 47.6875 C-64.29640625 46.51574219 -64.3428125 45.34398437 -64.390625 44.13671875 C-64 41 -64 41 -62.1640625 39.04296875 C-60 38 -60 38 -57.125 38.625 C-54.02633926 39.98841073 -50.99880688 41.4291964 -48 43 C-48.02320313 42.41992188 -48.04640625 41.83984375 -48.0703125 41.2421875 C-48.09738281 40.07042969 -48.09738281 40.07042969 -48.125 38.875 C-48.14820313 38.10929687 -48.17140625 37.34359375 -48.1953125 36.5546875 C-47.95990353 33.47553823 -47.06309744 30.88794187 -46 28 C-45.22398437 27.92523438 -44.44796875 27.85046875 -43.6484375 27.7734375 C-27.4988199 25.80773225 -14.71685005 19.2513167 -4.4375 6.625 C-1.99471819 3.45116403 -1.99471819 3.45116403 0 0 Z " fill="#151F25" transform="translate(350,198)"/>
<path d="M0 0 C0.495 1.485 0.495 1.485 1 3 C-27.05 3.33 -55.1 3.66 -84 4 C-84.33 4.66 -84.66 5.32 -85 6 C-84.34 5.67 -83.68 5.34 -83 5 C-80.30070256 4.88080438 -77.62640701 4.82164875 -74.92602539 4.80712891 C-74.09174515 4.79895142 -73.2574649 4.79077393 -72.39790344 4.78234863 C-69.63116174 4.75749082 -66.86447125 4.7409803 -64.09765625 4.7265625 C-63.15443449 4.72123882 -62.21121273 4.71591515 -61.23940849 4.71043015 C-56.24986457 4.68370066 -51.2603457 4.66432254 -46.27075195 4.64990234 C-41.10747362 4.63322791 -35.94483031 4.58842642 -30.78179264 4.5375309 C-26.81932303 4.50394658 -22.85700603 4.4923348 -18.89440727 4.48667526 C-16.99052497 4.4799415 -15.08665345 4.46466466 -13.18290901 4.44078445 C-10.52252819 4.40930938 -7.86388577 4.40906867 -5.20336914 4.41650391 C-4.41313354 4.40009857 -3.62289795 4.38369324 -2.80871582 4.36679077 C-0.61219788 4.39199829 -0.61219788 4.39199829 3 5 C5.07521057 7.34896851 5.07521057 7.34896851 6 10 C4.77974937 13.6607519 3.873509 13.92339441 0.5625 15.6875 C-0.64212891 16.34298828 -0.64212891 16.34298828 -1.87109375 17.01171875 C-4 18 -4 18 -6 18 C-6.33 18.66 -6.66 19.32 -7 20 C-7 18.02 -7 16.04 -7 14 C-5.02 13.34 -3.04 12.68 -1 12 C-0.67 10.35 -0.34 8.7 0 7 C-4.65052872 6.73067479 -4.65052872 6.73067479 -9 8 C-11.33512959 7.67949202 -13.66822025 7.34403308 -16 7 C-20.47916033 6.78794724 -20.47916033 6.78794724 -24.85449219 7.53564453 C-27.58747216 8.12714748 -29.85973728 7.8481908 -32.640625 7.5546875 C-40.26423543 6.89630415 -47.79799217 6.89833235 -55.43994141 7.07714844 C-56.98695473 7.10919395 -58.53423252 7.13025559 -60.08154297 7.140625 C-70.67960809 7.21197743 -78.38199861 7.9909728 -86.55859375 15.28125 C-87.17863281 16.0134375 -87.79867187 16.745625 -88.4375 17.5 C-89.07558594 18.2321875 -89.71367187 18.964375 -90.37109375 19.71875 C-93.61530507 24.26220182 -94.24685058 28.06257455 -94.21118164 33.59667969 C-94.2098674 34.24000244 -94.20855316 34.8833252 -94.2071991 35.54614258 C-94.20071827 37.67153724 -94.18024881 39.79656926 -94.16015625 41.921875 C-94.15386864 43.4242514 -94.14863431 44.92663254 -94.14439392 46.42901611 C-94.13109047 50.39790407 -94.10671829 54.3666382 -94.07904053 58.33544922 C-94.0308911 65.36419886 -93.99722408 72.39300584 -93.97265625 79.421875 C-93.96974516 80.18248608 -93.96683407 80.94309715 -93.96383476 81.72675705 C-93.92300398 94.3190549 -94.279151 106.86198242 -94.88467407 119.44067383 C-95.16151398 125.58433673 -95.26176208 131.72556359 -95.3125 137.875 C-95.34150391 139.10089844 -95.37050781 140.32679688 -95.40039062 141.58984375 C-95.45515579 149.46760174 -95.10302196 158.46155254 -89.52075195 164.63623047 C-88.76797974 165.31129639 -88.76797974 165.31129639 -88 166 C-87.175 166.86625 -86.35 167.7325 -85.5 168.625 C-83.16311246 171.1812626 -83.16311246 171.1812626 -80 172 C-80 172.66 -80 173.32 -80 174 C-84.42586451 175.52616017 -87.28088716 174.27429525 -91.45703125 172.50390625 C-97.26191995 169.07090756 -100.86476401 163.28420464 -103 157 C-104.77518074 142.72641601 -104.16361256 128.03629645 -104.16796875 113.68359375 C-104.17118895 111.17114748 -104.17455357 108.65870139 -104.17805481 106.14625549 C-104.18400327 100.91447514 -104.18589879 95.68271122 -104.18530273 90.45092773 C-104.18521071 84.42324627 -104.19532712 78.39567006 -104.2110464 72.36801189 C-104.2257279 66.52727238 -104.22929026 60.68656794 -104.22869301 54.84581184 C-104.22987013 52.37672625 -104.23427685 49.90763993 -104.24202538 47.43856621 C-104.25183866 43.99339253 -104.24894343 40.54844898 -104.24291992 37.10327148 C-104.24853943 36.09275726 -104.25415894 35.08224304 -104.25994873 34.04110718 C-104.21859832 24.71869861 -102.88194128 16.03546145 -96.13671875 9.078125 C-85.05947725 -1.01864503 -70.88378121 0.83413785 -56.73828125 0.68359375 C-55.09489984 0.66297716 -53.45152317 0.64197962 -51.80815125 0.62062073 C-47.519174 0.56588516 -43.23015284 0.5162656 -38.94110107 0.46777344 C-34.54988783 0.4172001 -30.15873698 0.36170265 -25.76757812 0.30664062 C-17.17843845 0.19965411 -8.58924596 0.09808149 0 0 Z " fill="#487481" transform="translate(248,188)"/>
<path d="M0 0 C2.89345808 2.89345808 2.46476122 5.98480502 2.625 9.875 C2.66222168 10.64150879 2.69944336 11.40801758 2.73779297 12.19775391 C3.02251116 18.46811438 3.19364335 24.72419522 3 31 C2.97164062 31.99128906 2.94328125 32.98257813 2.9140625 34.00390625 C2.60622715 39.5082954 2.27704214 43.10034393 -2 47 C-4.90092502 48.93395001 -5.89674737 49.30131941 -9.1875 49.625 C-10.445625 49.74875 -11.70375 49.8725 -13 50 C-12.97905273 51.01312256 -12.95810547 52.02624512 -12.93652344 53.07006836 C-12.8635533 56.86630855 -12.81799565 60.66248811 -12.78027344 64.45922852 C-12.76028668 66.09540264 -12.73308757 67.73150651 -12.69824219 69.36743164 C-12.47083215 80.32658902 -12.92521267 87.94603025 -19.1875 97.25 C-26.32139285 104.2253619 -32.7921048 105.63303925 -42.65435791 105.62210083 C-44.18958066 105.60441107 -45.7247979 105.58623711 -47.26000977 105.56762695 C-48.89678402 105.56621471 -50.53356144 105.56701191 -52.17033386 105.56983948 C-56.59142857 105.57126817 -61.01183855 105.54196775 -65.43277478 105.50696969 C-70.06118076 105.4756144 -74.68960417 105.47276824 -79.31809998 105.46684265 C-88.07277799 105.45133108 -96.82714208 105.41033915 -105.58168215 105.3600952 C-115.55263615 105.30411792 -125.52360552 105.27669418 -135.49467766 105.25161803 C-155.99662667 105.1994208 -176.49829352 105.11153096 -197 105 C-197 104.34 -197 103.68 -197 103 C-193.06031094 101.73706513 -189.06447725 101.77153841 -184.96875 101.68359375 C-184.11397568 101.66299393 -183.25920135 101.6423941 -182.37852478 101.62117004 C-179.41911809 101.55377952 -176.45960557 101.49546145 -173.5 101.4375 C-172.4603006 101.41465942 -171.4206012 101.39181885 -170.34939575 101.36828613 C-153.59173236 101.01001274 -136.84581437 100.99352146 -120.08538437 101.09387398 C-116.7100166 101.11330904 -113.3346484 101.12956969 -109.95925903 101.14476013 C-107.68768304 101.15516806 -105.41610711 101.16558987 -103.14453125 101.17602539 C-102.01459181 101.18113223 -100.88465237 101.18623907 -99.72047234 101.19150066 C-92.88186936 101.22496966 -86.04394495 101.28258018 -79.20566463 101.35629559 C-74.85763299 101.39804678 -70.50966579 101.41895034 -66.16147041 101.43488121 C-64.11538009 101.44691148 -62.06932003 101.46782947 -60.02342033 101.49823952 C-43.68755915 101.93323531 -43.68755915 101.93323531 -29.85569763 94.03887939 C-22.53058276 86.73081018 -22.66955461 77.80621386 -22.375 68 C-22.31699219 66.40865234 -22.31699219 66.40865234 -22.2578125 64.78515625 C-22.16430306 62.19026933 -22.07855098 59.59537551 -22 57 C-23.58361328 57.10828125 -23.58361328 57.10828125 -25.19921875 57.21875 C-33.83583171 57.775696 -42.47064862 58.14508942 -51.125 58.25 C-52.41990356 58.2819043 -52.41990356 58.2819043 -53.7409668 58.31445312 C-60.47777846 58.35104847 -66.14371362 57.35643626 -71.5 52.9375 C-73 51 -73 51 -73 49 C-73.66 49 -74.32 49 -75 49 C-75 48.01 -75 47.02 -75 46 C-75.66 46 -76.32 46 -77 46 C-77 43.03 -77 40.06 -77 37 C-76.34 37 -75.68 37 -75 37 C-74.505 39.475 -74.505 39.475 -74 42 C-73.34 42 -72.68 42 -72 42 C-71.34 42.99 -70.68 43.98 -70 45 C-67.17130886 45.44011437 -67.17130886 45.44011437 -63.80615234 45.34057617 C-61.85435562 45.34023628 -61.85435562 45.34023628 -59.86312866 45.33988953 C-58.43739481 45.32456837 -57.01166444 45.30892037 -55.5859375 45.29296875 C-54.13148434 45.28737443 -52.67702553 45.28310356 -51.2225647 45.28010559 C-47.39193145 45.26864374 -43.56163872 45.23916547 -39.73114014 45.20599365 C-35.82341112 45.17532138 -31.91562716 45.16160637 -28.0078125 45.14648438 C-20.33838632 45.11429667 -12.66924085 45.06308463 -5 45 C-4.690625 44.38125 -4.38125 43.7625 -4.0625 43.125 C-3.375 41.75 -2.6875 40.375 -2 39 C-1.91308999 36.15570643 -1.88446198 33.33620824 -1.90234375 30.4921875 C-1.9037587 29.65156769 -1.90517365 28.81094788 -1.90663147 27.94485474 C-1.91223763 25.25486725 -1.92479114 22.56496241 -1.9375 19.875 C-1.94251421 18.05338662 -1.94707725 16.23177193 -1.95117188 14.41015625 C-1.96220906 9.94007223 -1.9794778 5.47005014 -2 1 C-1.34 0.67 -0.68 0.34 0 0 Z " fill="#05080B" transform="translate(368,259)"/>
<path d="M0 0 C1.36125 1.11375 1.36125 1.11375 2.75 2.25 C2.75 2.91 2.75 3.57 2.75 4.25 C3.348125 4.4975 3.94625 4.745 4.5625 5 C7.06626919 6.43072525 8.23072388 7.8191582 9.75 10.25 C9.75 10.91 9.75 11.57 9.75 12.25 C10.41 12.25 11.07 12.25 11.75 12.25 C15.52304004 17.79165256 16.29330269 21.59454208 15.75 28.25 C13.875 29.3125 13.875 29.3125 11.75 30.25 C9.04001633 28.89500817 8.79051525 27.4327218 7.5625 24.6875 C2.25419831 13.88626004 -6.1864826 6.90397401 -17.375 2.4375 C-18.65869472 2.01653128 -19.95082508 1.62044747 -21.25 1.25 C-21.93320312 1.04632813 -22.61640625 0.84265625 -23.3203125 0.6328125 C-31.39533886 -1.48000802 -39.48517601 -1.90948011 -47.25 1.25 C-48.24 0.755 -48.24 0.755 -49.25 0.25 C-49.58 1.24 -49.91 2.23 -50.25 3.25 C-50.25 2.59 -50.25 1.93 -50.25 1.25 C-56.46582048 4.21592449 -62.44122851 7.20078994 -67.25 12.25 C-67.91 12.58 -68.57 12.91 -69.25 13.25 C-69.745 14.735 -69.745 14.735 -70.25 16.25 C-71.178125 16.9925 -72.10625 17.735 -73.0625 18.5 C-81.14474798 25.09341283 -82.37547663 35.04308455 -83.57421875 44.921875 C-83.87215663 51.20939162 -82.11325258 56.57232688 -80.02734375 62.46484375 C-79.25 65.25 -79.25 65.25 -80.25 68.25 C-80.91 68.25 -81.57 68.25 -82.25 68.25 C-82.25 70.56 -82.25 72.87 -82.25 75.25 C-83.95840281 73.61587557 -85.18453047 72.38093906 -86.25 70.25 C-115.29 70.25 -144.33 70.25 -174.25 70.25 C-173.92 69.26 -173.59 68.27 -173.25 67.25 C-145.2 67.25 -117.15 67.25 -88.25 67.25 C-88.25 66.26 -88.25 65.27 -88.25 64.25 C-88.91 64.25 -89.57 64.25 -90.25 64.25 C-95.38971903 49.53449491 -94.41094555 34.76214648 -87.77954102 20.72485352 C-85.1211722 15.28829198 -82.35715949 10.67824036 -78.25 6.25 C-77.59 6.25 -76.93 6.25 -76.25 6.25 C-76.25 5.59 -76.25 4.93 -76.25 4.25 C-53.67361148 -15.1931635 -24.68189237 -16.71839603 0 0 Z " fill="#E5E8E9" transform="translate(337.25,123.75)"/>
<path d="M0 0 C3.34430737 0.72366315 5.34262343 1.81715496 8 4 C6.68739967 7.47953075 5.15960266 10.62361333 3.26953125 13.82421875 C2.72184082 14.7565332 2.17415039 15.68884766 1.60986328 16.64941406 C1.0167334 17.65198242 0.42360352 18.65455078 -0.1875 19.6875 C-1.46540419 21.86295214 -2.74272873 24.03874485 -4.01953125 26.21484375 C-5.00880615 27.89876221 -5.00880615 27.89876221 -6.01806641 29.61669922 C-9.16045351 34.9809762 -12.2699634 40.36403966 -15.375 45.75 C-15.99109131 46.81831055 -16.60718262 47.88662109 -17.24194336 48.98730469 C-21.58643866 56.52860809 -25.90913535 64.08220102 -30.22384644 71.64056396 C-31.23913589 73.41847545 -32.25527387 75.19589898 -33.27172852 76.97314453 C-36.3076548 82.2821676 -39.33787103 87.59407756 -42.34765625 92.91796875 C-43.33575313 94.6537508 -44.3240215 96.38943524 -45.3125 98.125 C-45.96943848 99.29760376 -45.96943848 99.29760376 -46.63964844 100.49389648 C-48.9785554 104.58231706 -50.73751673 106.86875837 -55 109 C-55 108.34 -55 107.68 -55 107 C-55.99 106.67 -56.98 106.34 -58 106 C-58.99 106.99 -58.99 106.99 -60 108 C-59.47078297 103.73137037 -58.53942641 100.6912609 -56.33203125 97.0078125 C-55.49744385 95.59786011 -55.49744385 95.59786011 -54.64599609 94.15942383 C-54.04094238 93.15806396 -53.43588867 92.1567041 -52.8125 91.125 C-51.52973083 88.96497265 -50.247185 86.80481266 -48.96484375 84.64453125 C-48.30597168 83.54189941 -47.64709961 82.43926758 -46.96826172 81.30322266 C-43.90325773 76.1593993 -40.88872635 70.98647821 -37.875 65.8125 C-37.29339111 64.81621582 -36.71178223 63.81993164 -36.11254883 62.79345703 C-31.88235377 55.54017251 -27.7072419 48.25675611 -23.55395508 40.95922852 C-19.03058764 33.02353587 -14.42734338 25.13521124 -9.80664062 17.25585938 C-6.46213981 11.54412166 -3.18344651 5.80314831 0 0 Z " fill="#0E1316" transform="translate(270,214)"/>
<path d="M0 0 C0.495 1.485 0.495 1.485 1 3 C-27.05 3.33 -55.1 3.66 -84 4 C-84.33 4.66 -84.66 5.32 -85 6 C-84.34 5.67 -83.68 5.34 -83 5 C-80.30070256 4.88080438 -77.62640701 4.82164875 -74.92602539 4.80712891 C-74.09174515 4.79895142 -73.2574649 4.79077393 -72.39790344 4.78234863 C-69.63116174 4.75749082 -66.86447125 4.7409803 -64.09765625 4.7265625 C-63.15443449 4.72123882 -62.21121273 4.71591515 -61.23940849 4.71043015 C-56.24986457 4.68370066 -51.2603457 4.66432254 -46.27075195 4.64990234 C-41.10747362 4.63322791 -35.94483031 4.58842642 -30.78179264 4.5375309 C-26.81932303 4.50394658 -22.85700603 4.4923348 -18.89440727 4.48667526 C-16.99052497 4.4799415 -15.08665345 4.46466466 -13.18290901 4.44078445 C-10.52252819 4.40930938 -7.86388577 4.40906867 -5.20336914 4.41650391 C-4.41313354 4.40009857 -3.62289795 4.38369324 -2.80871582 4.36679077 C-0.61219788 4.39199829 -0.61219788 4.39199829 3 5 C5.07521057 7.34896851 5.07521057 7.34896851 6 10 C4.77974937 13.6607519 3.873509 13.92339441 0.5625 15.6875 C-0.64212891 16.34298828 -0.64212891 16.34298828 -1.87109375 17.01171875 C-4 18 -4 18 -6 18 C-6.33 18.66 -6.66 19.32 -7 20 C-7 18.02 -7 16.04 -7 14 C-5.02 13.34 -3.04 12.68 -1 12 C-0.67 10.35 -0.34 8.7 0 7 C-4.65052872 6.73067479 -4.65052872 6.73067479 -9 8 C-11.33512959 7.67949202 -13.66822025 7.34403308 -16 7 C-20.47916033 6.78794724 -20.47916033 6.78794724 -24.85449219 7.53564453 C-27.58747216 8.12714748 -29.85973728 7.8481908 -32.640625 7.5546875 C-40.26423543 6.89630415 -47.79799217 6.89833235 -55.43994141 7.07714844 C-56.98695473 7.10919395 -58.53423252 7.13025559 -60.08154297 7.140625 C-70.71884915 7.21224162 -78.56302802 7.91849127 -86.62890625 15.45703125 C-87.58603516 16.62298828 -87.58603516 16.62298828 -88.5625 17.8125 C-89.22378906 18.60269531 -89.88507813 19.39289063 -90.56640625 20.20703125 C-91.03949219 20.79871094 -91.51257813 21.39039063 -92 22 C-92.66 20.68 -93.32 19.36 -94 18 C-96.10415891 19.68622853 -96.10415891 19.68622853 -98 22 C-98.16687448 24.58354218 -98.16687448 24.58354218 -98 27 C-98.66 27.66 -99.32 28.32 -100 29 C-100.1201241 31.9679442 -100.13943939 34.84916789 -100.0625 37.8125 C-99.85137441 47.61029134 -99.85137441 47.61029134 -101 52 C-101.33 52 -101.66 52 -102 52 C-102.24363049 47.5901349 -102.45816789 43.18005085 -102.64697266 38.76757812 C-102.71502381 37.26980778 -102.79072594 35.7723632 -102.87451172 34.27539062 C-103.41771952 24.45838213 -103.71559502 17.31453464 -96.81640625 9.5390625 C-95.70072266 8.59160156 -95.70072266 8.59160156 -94.5625 7.625 C-93.82128906 6.97789062 -93.08007812 6.33078125 -92.31640625 5.6640625 C-82.6231462 -1.29939244 -68.15085635 0.80505258 -56.73828125 0.68359375 C-55.09489984 0.66297716 -53.45152317 0.64197962 -51.80815125 0.62062073 C-47.519174 0.56588516 -43.23015284 0.5162656 -38.94110107 0.46777344 C-34.54988783 0.4172001 -30.15873698 0.36170265 -25.76757812 0.30664062 C-17.17843845 0.19965411 -8.58924596 0.09808149 0 0 Z " fill="#62797F" transform="translate(248,188)"/>
<path d="M0 0 C-0.49831724 3.68754757 -1.10067643 5.60490662 -4 8 C-3.01 8.33 -2.02 8.66 -1 9 C-1 10.98 -1 12.96 -1 15 C-1.99 14.67 -2.98 14.34 -4 14 C-4.10054687 14.55816406 -4.20109375 15.11632812 -4.3046875 15.69140625 C-5.1514611 18.50288487 -6.48934688 20.49868986 -8.125 22.9375 C-15.21137946 33.23580198 -15.21137946 33.23580198 -19.53515625 44.75390625 C-20.21530451 48.04033692 -22.44414995 48.96842689 -25 51 C-25 52.32 -25 53.64 -25 55 C-26.66666667 56.66666667 -28.33333333 58.33333333 -30 60 C-31.73491637 63.18185067 -32.85559214 66.56677641 -34 70 C-34.66 70 -35.32 70 -36 70 C-36.268125 70.5775 -36.53625 71.155 -36.8125 71.75 C-38 74 -38 74 -39.5 75.9375 C-41.10342626 77.95529742 -41.10342626 77.95529742 -41.9375 80.4375 C-43.18586645 83.44826614 -44.93122097 85.49238906 -47 88 C-47.53625 88.928125 -48.0725 89.85625 -48.625 90.8125 C-49.305625 91.8953125 -49.305625 91.8953125 -50 93 C-50.66 93 -51.32 93 -52 93 C-51.40978811 88.99837244 -50.15443329 86.14707221 -48.11328125 82.66796875 C-47.21101807 81.11770996 -47.21101807 81.11770996 -46.29052734 79.53613281 C-45.63777832 78.43108398 -44.9850293 77.32603516 -44.3125 76.1875 C-43.63167145 75.02349354 -42.95150545 73.85909932 -42.27197266 72.69433594 C-40.87237807 70.29776142 -39.46886013 67.90355377 -38.06201172 65.51123047 C-36.14734198 62.25409242 -34.24560003 58.98957455 -32.34765625 55.72265625 C-31.76983398 54.72886963 -31.19201172 53.73508301 -30.59667969 52.71118164 C-29.45242614 50.74313694 -28.30854358 48.77487649 -27.16503906 46.80639648 C-24.22341783 41.75779068 -21.24279831 36.73789436 -18.19921875 31.75 C-17.58900879 30.74227539 -16.97879883 29.73455078 -16.35009766 28.69628906 C-15.18449545 26.77516268 -14.00883235 24.8600938 -12.82177734 22.95214844 C-12.30437988 22.0965332 -11.78698242 21.24091797 -11.25390625 20.359375 C-10.79314697 19.61139648 -10.3323877 18.86341797 -9.85766602 18.09277344 C-8.81810325 15.55615744 -8.96258785 14.50716161 -10 12 C-11.31328657 10.64691687 -12.64499081 9.31129922 -14 8 C-14 7.34 -14 6.68 -14 6 C-12.2335343 4.9923048 -10.46166177 3.99408286 -8.6875 3 C-7.70136719 2.443125 -6.71523437 1.88625 -5.69921875 1.3125 C-3 0 -3 0 0 0 Z " fill="#E1EBEC" transform="translate(256,200)"/>
<path d="M0 0 C0.66 0 1.32 0 2 0 C1.49228528 5.96564796 -0.38592128 10.63809899 -3 16 C-3.66 16 -4.32 16 -5 16 C-5.23847656 16.71414062 -5.47695313 17.42828125 -5.72265625 18.1640625 C-10.75900113 29.34567224 -22.22375778 36.60866735 -33.0625 41.375 C-37.96542149 43.21654675 -42.79077812 43.77833098 -48 44 C-47.67 43.34 -47.34 42.68 -47 42 C-44.69 42 -42.38 42 -40 42 C-40 41.34 -40 40.68 -40 40 C-39 39 -38 38 -37 37 C-36.54625 36.175 -36.0925 35.35 -35.625 34.5 C-33.74889348 31.61368228 -32.0695013 30.49539807 -29 29 C-28.34 29 -27.68 29 -27 29 C-27 28.34 -27 27.68 -27 27 C-26.1646875 26.690625 -26.1646875 26.690625 -25.3125 26.375 C-22.6911192 24.81634115 -21.10330372 22.88930809 -19.2265625 20.51171875 C-18 19 -18 19 -15.875 16.9375 C-13.86555115 15.01616105 -13.86555115 15.01616105 -12.4375 12.3125 C-11 10 -11 10 -8 9 C-5.3125 9.4375 -5.3125 9.4375 -3 10 C-2.814375 8.081875 -2.814375 8.081875 -2.625 6.125 C-2.25 2.25 -2.25 2.25 0 0 Z " fill="#A0B0B2" transform="translate(355,182)"/>
<path d="M0 0 C2.37810443 1.04042069 4.71507792 2.08215734 7 3.3125 C7 3.9725 7 4.6325 7 5.3125 C7.99 5.6425 8.98 5.9725 10 6.3125 C9.34 6.3125 8.68 6.3125 8 6.3125 C8.66 7.9625 9.32 9.6125 10 11.3125 C9.01 11.9725 8.02 12.6325 7 13.3125 C7.66 13.9725 8.32 14.6325 9 15.3125 C8.89074068 18.48102034 7.77791951 19.55795738 5.625 21.9375 C3 24.3125 3 24.3125 0 26.3125 C-0.12375 25.508125 -0.2475 24.70375 -0.375 23.875 C-0.58125 23.029375 -0.7875 22.18375 -1 21.3125 C-1.66 20.9825 -2.32 20.6525 -3 20.3125 C-3.33 20.9725 -3.66 21.6325 -4 22.3125 C-4.33 20.9925 -4.66 19.6725 -5 18.3125 C-5.99 18.6425 -6.98 18.9725 -8 19.3125 C-10.1875 18.375 -10.1875 18.375 -12 17.3125 C-11.67 16.6525 -11.34 15.9925 -11 15.3125 C-9.68 15.3125 -8.36 15.3125 -7 15.3125 C-7.04640625 14.40886719 -7.0928125 13.50523437 -7.140625 12.57421875 C-7.17671875 11.39472656 -7.2128125 10.21523437 -7.25 9 C-7.29640625 7.82824219 -7.3428125 6.65648437 -7.390625 5.44921875 C-7 2.3125 -7 2.3125 -5.171875 0.3515625 C-3 -0.6875 -3 -0.6875 0 0 Z " fill="#0B1215" transform="translate(293,236.6875)"/>
<path d="M0 0 C2 1 2 1 3.0703125 3.8515625 C5.90347608 13.98799221 8.43325686 25.68186976 5 36 C3.67081366 36.67489694 2.33751937 37.34177196 1 38 C0.3006486 40.18541552 0.3006486 40.18541552 0.25 42.625 C0.19328125 43.44226563 0.1365625 44.25953125 0.078125 45.1015625 C0.05234375 45.72804687 0.0265625 46.35453125 0 47 C-1.98 46.34 -3.96 45.68 -6 45 C-5.125 38.125 -5.125 38.125 -4 37 C-2.26071172 27.91705008 -2.87417022 19.49162907 -4.7578125 10.46875 C-4.83773438 9.6540625 -4.91765625 8.839375 -5 8 C-4.34 7.34 -3.68 6.68 -3 6 C-2.34 6 -1.68 6 -1 6 C-0.67 4.02 -0.34 2.04 0 0 Z " fill="#C9D4D6" transform="translate(353,146)"/>
<path d="M0 0 C1.54652756 -0.01441132 1.54652756 -0.01441132 3.1242981 -0.02911377 C4.22651703 -0.03336365 5.32873596 -0.03761353 6.46435547 -0.04199219 C7.60436005 -0.04769226 8.74436462 -0.05339233 9.91891479 -0.05926514 C12.32451452 -0.06869668 14.73012707 -0.07524177 17.13574219 -0.07910156 C20.82493269 -0.08884972 24.51357587 -0.11990817 28.20263672 -0.15136719 C30.53987299 -0.15789338 32.87711325 -0.16314535 35.21435547 -0.16699219 C36.87375656 -0.18551239 36.87375656 -0.18551239 38.56668091 -0.20440674 C39.59139496 -0.20140564 40.61610901 -0.19840454 41.671875 -0.1953125 C42.57390656 -0.19895813 43.47593811 -0.20260376 44.40530396 -0.20635986 C47.13281104 0.22920501 48.00598635 1.04109593 49.70654297 3.16113281 C49.01163254 3.16699905 48.31672211 3.1728653 47.60075378 3.1789093 C41.05278288 3.23680622 34.50513908 3.30886508 27.9574995 3.39684772 C24.5912382 3.44158122 21.22509873 3.4808302 17.85864258 3.50756836 C13.98862576 3.54102262 10.1192585 3.59333534 6.24951172 3.64941406 C4.43534004 3.65899895 4.43534004 3.65899895 2.58451843 3.66877747 C1.46358292 3.68857162 0.3426474 3.70836578 -0.81225586 3.72875977 C-1.80042801 3.73986282 -2.78860016 3.75096588 -3.80671692 3.7624054 C-6.70471392 4.22707432 -7.57516728 4.82231671 -9.29345703 7.16113281 C-9.62345703 8.15113281 -9.95345703 9.14113281 -10.29345703 10.16113281 C-10.95345703 9.50113281 -11.61345703 8.84113281 -12.29345703 8.16113281 C-16.09499085 11.71740639 -17.2839648 14.27190579 -17.82861328 19.39160156 C-17.915625 20.19404297 -18.00263672 20.99648438 -18.09228516 21.82324219 C-18.17929687 22.65662109 -18.26630859 23.49 -18.35595703 24.34863281 C-18.44683594 25.19361328 -18.53771484 26.03859375 -18.63134766 26.90917969 C-18.85501823 28.99284766 -19.07462854 31.07695076 -19.29345703 33.16113281 C-19.62345703 33.16113281 -19.95345703 33.16113281 -20.29345703 33.16113281 C-20.43982091 29.64074367 -20.52787726 26.12114586 -20.60595703 22.59863281 C-20.64785156 21.60798828 -20.68974609 20.61734375 -20.73291016 19.59667969 C-20.84728067 12.71157485 -19.95533743 9.2926545 -15.29345703 4.16113281 C-10.52419491 0.58418622 -5.84021518 0.04413015 0 0 Z " fill="#6DA0AD" transform="translate(313.29345703125,252.8388671875)"/>
<path d="M0 0 C1.73016195 -0.00337166 3.46032158 -0.0082272 5.19047546 -0.01449585 C8.80242643 -0.02184087 12.41375633 -0.0112323 16.02563477 0.01220703 C20.65759128 0.04080125 25.28810597 0.02420971 29.92001057 -0.00565529 C33.48625106 -0.02370169 37.05214797 -0.01798446 40.61839867 -0.00501633 C42.32685708 -0.00168046 44.03534666 -0.00577579 45.74376869 -0.01741409 C48.12600438 -0.03009174 50.50588009 -0.01079843 52.88793945 0.01708984 C53.59394287 0.00696869 54.29994629 -0.00315247 55.02734375 -0.01358032 C56.99360657 0.02914429 56.99360657 0.02914429 60.26171875 0.6640625 C62.28507996 3.01699829 62.28507996 3.01699829 63.26171875 5.6640625 C62.04146812 9.3248144 61.13522775 9.58745691 57.82421875 11.3515625 C56.61958984 12.00705078 56.61958984 12.00705078 55.390625 12.67578125 C53.26171875 13.6640625 53.26171875 13.6640625 51.26171875 13.6640625 C50.93171875 14.3240625 50.60171875 14.9840625 50.26171875 15.6640625 C50.26171875 13.6840625 50.26171875 11.7040625 50.26171875 9.6640625 C52.24171875 9.0040625 54.22171875 8.3440625 56.26171875 7.6640625 C56.59171875 6.0140625 56.92171875 4.3640625 57.26171875 2.6640625 C52.61119003 2.39473729 52.61119003 2.39473729 48.26171875 3.6640625 C45.92658916 3.34355452 43.5934985 3.00809558 41.26171875 2.6640625 C36.78200933 2.45201809 36.78200933 2.45201809 32.40625 3.20019531 C29.6769622 3.79054673 27.41343303 3.50780198 24.63671875 3.2109375 C16.9307301 2.54291276 9.32397277 2.63165526 1.60205078 2.85107422 C-0.76260793 2.91471723 -3.1270312 2.95565956 -5.4921875 2.99609375 C-7.01175467 3.03508264 -8.53128852 3.07539814 -10.05078125 3.1171875 C-11.09927246 3.13147797 -11.09927246 3.13147797 -12.16894531 3.14605713 C-16.57564182 3.30014591 -19.06740282 4.32996856 -22.73828125 6.6640625 C-23.72828125 6.3340625 -24.71828125 6.0040625 -25.73828125 5.6640625 C-18.03163303 -0.88883352 -9.57638551 -0.06568477 0 0 Z " fill="#5D8793" transform="translate(190.73828125,192.3359375)"/>
<path d="M0 0 C0.33 0.99 0.66 1.98 1 3 C0.34 3.66 -0.32 4.32 -1 5 C-0.01 5.99 0.98 6.98 2 8 C1.54625 8.556875 1.0925 9.11375 0.625 9.6875 C-1.03733768 12.05313439 -2.02144543 14.29015658 -3 17 C-3.66 15.68 -4.32 14.36 -5 13 C-7.10415891 14.68622853 -7.10415891 14.68622853 -9 17 C-9.16687448 19.58354218 -9.16687448 19.58354218 -9 22 C-9.66 22.66 -10.32 23.32 -11 24 C-11.1201241 26.9679442 -11.13943939 29.84916789 -11.0625 32.8125 C-10.85137441 42.61029134 -10.85137441 42.61029134 -12 47 C-12.33 47 -12.66 47 -13 47 C-13.24363049 42.5901349 -13.45816789 38.18005085 -13.64697266 33.76757812 C-13.71502381 32.26980778 -13.79072594 30.7723632 -13.87451172 29.27539062 C-14.4057589 19.67453787 -14.49694165 12.92472062 -8.4375 4.94140625 C-5.67437278 2.2909065 -3.75179284 0.70346116 0 0 Z " fill="#67A1AF" transform="translate(159,193)"/>
<path d="M0 0 C28.38 0 56.76 0 86 0 C86.495 0.99 86.495 0.99 87 2 C57.96 2.33 28.92 2.66 -1 3 C-0.67 2.01 -0.34 1.02 0 0 Z " fill="#E9F8FC" transform="translate(164,191)"/>
<path d="M0 0 C2.89345808 2.89345808 2.46476122 5.98480502 2.625 9.875 C2.68083252 11.02476318 2.68083252 11.02476318 2.73779297 12.19775391 C3.02251116 18.46811438 3.19364335 24.72419522 3 31 C2.97164063 31.99128906 2.94328125 32.98257813 2.9140625 34.00390625 C2.60622715 39.5082954 2.27704214 43.10034393 -2 47 C-5.4352048 49.29013653 -6.985331 49.17842973 -11 49 C-11 48.67 -11 48.34 -11 48 C-8.525 47.505 -8.525 47.505 -6 47 C-6.66 46.34 -7.32 45.68 -8 45 C-7.01 45 -6.02 45 -5 45 C-4.5359375 44.071875 -4.5359375 44.071875 -4.0625 43.125 C-3.375 41.75 -2.6875 40.375 -2 39 C-1.91308999 36.15570643 -1.88446198 33.33620824 -1.90234375 30.4921875 C-1.90446617 29.23125778 -1.90446617 29.23125778 -1.90663147 27.94485474 C-1.91223763 25.25486725 -1.92479114 22.56496241 -1.9375 19.875 C-1.94251421 18.05338662 -1.94707725 16.23177193 -1.95117188 14.41015625 C-1.96220906 9.94007223 -1.9794778 5.47005014 -2 1 C-1.34 0.67 -0.68 0.34 0 0 Z " fill="#050D13" transform="translate(368,259)"/>
<path d="M0 0 C0.66 0.66 1.32 1.32 2 2 C0.625 4 0.625 4 -1 6 C-1.66 6 -2.32 6 -3 6 C-2.34 6.66 -1.68 7.32 -1 8 C1.10820797 7.6814823 1.10820797 7.6814823 3 7 C3 7.99 3 8.98 3 10 C1.10545176 10.96087136 -0.79069581 11.91858969 -2.6875 12.875 C-3.74324219 13.40867188 -4.79898437 13.94234375 -5.88671875 14.4921875 C-10.46037125 16.70728143 -14.22255521 18.21780442 -19.3125 18.625 C-20.19550781 18.69976562 -21.07851563 18.77453125 -21.98828125 18.8515625 C-22.65214844 18.90054688 -23.31601562 18.94953125 -24 19 C-23.67 18.34 -23.34 17.68 -23 17 C-20.69 17 -18.38 17 -16 17 C-16 16.34 -16 15.68 -16 15 C-15 14 -14 13 -13 12 C-12.54625 11.175 -12.0925 10.35 -11.625 9.5 C-9.74889348 6.61368228 -8.0695013 5.49539807 -5 4 C-4.34 4 -3.68 4 -3 4 C-3 3.34 -3 2.68 -3 2 C-2.01 1.34 -1.02 0.68 0 0 Z " fill="#93A6A6" transform="translate(331,207)"/>
<path d="M0 0 C1.98 1.65 3.96 3.3 6 5 C5.33488123 8.40485673 4.01123535 10.99113056 2.27734375 13.984375 C1.47006836 15.38623047 1.47006836 15.38623047 0.64648438 16.81640625 C-0.19946289 18.26853516 -0.19946289 18.26853516 -1.0625 19.75 C-1.63033203 20.73355469 -2.19816406 21.71710938 -2.78320312 22.73046875 C-4.1844729 25.15619626 -5.59020387 27.57922121 -7 30 C-7.99 29.67 -8.98 29.34 -10 29 C-9.625 26.5625 -9.625 26.5625 -9 24 C-8.34 23.67 -7.68 23.34 -7 23 C-7 22.01 -7 21.02 -7 20 C-6.01 20 -5.02 20 -4 20 C-3.67 18.68 -3.34 17.36 -3 16 C-2.34 16 -1.68 16 -1 16 C-0.896875 14.88625 -0.79375 13.7725 -0.6875 12.625 C-0.460625 11.42875 -0.23375 10.2325 0 9 C0.99 8.34 1.98 7.68 3 7 C1.68 7 0.36 7 -1 7 C-0.67 4.69 -0.34 2.38 0 0 Z " fill="#435C64" transform="translate(242,208)"/>
<path d="M0 0 C0.680625 0.350625 1.36125 0.70125 2.0625 1.0625 C2.701875 1.371875 3.34125 1.68125 4 2 C4.66 1.67 5.32 1.34 6 1 C8.125 1.9375 8.125 1.9375 10 3 C9.67 4.32 9.34 5.64 9 7 C7.01432292 6.4140625 5.02864583 5.828125 3.04296875 5.2421875 C0.68854587 4.73906252 0.68854587 4.73906252 -2 7 C-2.58592634 10.11610554 -2.58592634 10.11610554 -2.6875 13.625 C-2.75324219 14.81351563 -2.81898438 16.00203125 -2.88671875 17.2265625 C-2.92410156 18.14179688 -2.96148437 19.05703125 -3 20 C-4.32 19.67 -5.64 19.34 -7 19 C-6.91621094 18.39671875 -6.83242188 17.7934375 -6.74609375 17.171875 C-6.64425781 16.37265625 -6.54242188 15.5734375 -6.4375 14.75 C-6.28087891 13.56664062 -6.28087891 13.56664062 -6.12109375 12.359375 C-5.9982291 9.96549602 -6.38036429 8.29494706 -7 6 C-7 4.68 -7 3.36 -7 2 C-4.35261084 0.5393715 -3.10551666 0 0 0 Z " fill="#A0B1B3" transform="translate(289,232)"/>
<path d="M0 0 C0.33 0 0.66 0 1 0 C1 14.85 1 29.7 1 45 C1.66 45 2.32 45 3 45 C3.042721 46.66611905 3.04063832 48.33382885 3 50 C2.505 50.495 2.505 50.495 2 51 C1.87397946 53.10131921 1.8242078 55.20743788 1.8125 57.3125 C1.79832031 58.46363281 1.78414062 59.61476563 1.76953125 60.80078125 C1.99236353 63.8939954 2.60372992 65.33117997 4 68 C3.67 68.99 3.34 69.98 3 71 C0.46902747 66.57635447 -0.37023464 63.43353573 -0.34057617 58.35205078 C-0.34034958 57.05115509 -0.34012299 55.7502594 -0.33988953 54.40994263 C-0.32457301 53.00506235 -0.30892508 51.60018565 -0.29296875 50.1953125 C-0.2873677 48.74657634 -0.28310001 47.29783447 -0.28010559 45.84909058 C-0.26869677 42.05139245 -0.2392644 38.25404307 -0.20599365 34.45648193 C-0.17520678 30.5752026 -0.16158192 26.69386646 -0.14648438 22.8125 C-0.1143903 15.20817501 -0.06324272 7.60413653 0 0 Z " fill="#3E5C65" transform="translate(145,280)"/>
<path d="M0 0 C-0.7115625 0.6496875 -0.7115625 0.6496875 -1.4375 1.3125 C-3.23686957 3.02309613 -3.23686957 3.02309613 -4 6 C-4.66 5.34 -5.32 4.68 -6 4 C-9.80153382 7.55627357 -10.99050776 10.11077298 -11.53515625 15.23046875 C-11.62216797 16.03291016 -11.70917969 16.83535156 -11.79882812 17.66210938 C-11.88583984 18.49548828 -11.97285156 19.32886719 -12.0625 20.1875 C-12.15337891 21.03248047 -12.24425781 21.87746094 -12.33789062 22.74804688 C-12.5615612 24.83171485 -12.78117151 26.91581795 -13 29 C-13.33 29 -13.66 29 -14 29 C-14.11681812 25.45861382 -14.187455 21.9177276 -14.25 18.375 C-14.28351563 17.37597656 -14.31703125 16.37695312 -14.3515625 15.34765625 C-14.43162014 9.30330456 -14.25775034 5.48748507 -10 1 C-9.01 1 -8.02 1 -7 1 C-6.34 0.649375 -5.68 0.29875 -5 -0.0625 C-3 -1 -3 -1 0 0 Z " fill="#66919D" transform="translate(307,257)"/>
<path d="M0 0 C5.74504249 5.30311615 5.74504249 5.30311615 6 9 C4.64002141 11.71995718 2.65937518 12.67031241 0 14 C0 13.34 0 12.68 0 12 C-0.99 11.67 -1.98 11.34 -3 11 C-3.66 11.66 -4.32 12.32 -5 13 C-4.48474397 7.71862571 -2.74522883 4.42778844 0 0 Z " fill="#11181C" transform="translate(215,309)"/>
<path d="M0 0 C0.99 1.32 1.98 2.64 3 4 C2 7 2 7 0 8.4375 C-2.29189635 10.22804402 -2.61121002 11.18127263 -3 14 C-1.02 14 0.96 14 3 14 C-0.04117196 16.02744797 -2.48143999 17.06650449 -6 18 C-7.32 17.67 -8.64 17.34 -10 17 C-6.7 11.39 -3.4 5.78 0 0 Z " fill="#92A0A3" transform="translate(228,304)"/>
<path d="M0 0 C1.875 0.125 1.875 0.125 4 1 C5.25 4.0625 5.25 4.0625 6 7 C4.37829621 8.00533667 2.75252763 9.00411907 1.125 10 C-0.23238281 10.8353125 -0.23238281 10.8353125 -1.6171875 11.6875 C-4 13 -4 13 -6 13 C-6.33 13.66 -6.66 14.32 -7 15 C-7 13.02 -7 11.04 -7 9 C-5.02 8.34 -3.04 7.68 -1 7 C-0.67 4.69 -0.34 2.38 0 0 Z " fill="#486A73" transform="translate(248,193)"/>
<path d="M0 0 C13.86 0 27.72 0 42 0 C42.495 0.99 42.495 0.99 43 2 C41.88028809 2.02505615 40.76057617 2.0501123 39.60693359 2.07592773 C35.4359272 2.17040014 31.26507193 2.2705222 27.09423828 2.37231445 C25.29219102 2.41551311 23.4901068 2.45719824 21.68798828 2.49731445 C19.09135825 2.55538376 16.4949117 2.6189708 13.8984375 2.68359375 C13.0982016 2.70030624 12.2979657 2.71701874 11.47348022 2.73423767 C7.2246447 2.8456937 3.18551925 3.17753083 -1 4 C-0.67 2.68 -0.34 1.36 0 0 Z " fill="#16323D" transform="translate(303,251)"/>
<path d="M0 0 C0.66 0 1.32 0 2 0 C1.49744984 4.64519333 0.36591818 7.47979187 -2.375 11.25 C-2.98085937 12.10078125 -3.58671875 12.9515625 -4.2109375 13.828125 C-6 16 -6 16 -9 18 C-8.6437915 11.23203853 -4.73652774 4.73652774 0 0 Z " fill="#EAF2F4" transform="translate(249,214)"/>
<path d="M0 0 C0.33 0 0.66 0 1 0 C1.33 4.95 1.66 9.9 2 15 C2.33 12.03 2.66 9.06 3 6 C3.33 6 3.66 6 4 6 C3.67 14.25 3.34 22.5 3 31 C2.34 31 1.68 31 1 31 C-0.11911712 27.64264863 -0.11365586 25.11794614 -0.09765625 21.58203125 C-0.09443359 20.32841797 -0.09121094 19.07480469 -0.08789062 17.78320312 C-0.07951172 16.47287109 -0.07113281 15.16253906 -0.0625 13.8125 C-0.05748317 12.47721519 -0.05292059 11.14192859 -0.04882812 9.80664062 C-0.03702695 6.53771527 -0.02056297 3.26888009 0 0 Z " fill="#40626C" transform="translate(292,266)"/>
<path d="M0 0 C0.33 0 0.66 0 1 0 C1.02505615 0.94842773 1.0501123 1.89685547 1.07592773 2.87402344 C1.1711884 6.40018032 1.27041441 9.92617959 1.37231445 13.45214844 C1.41556707 14.97684386 1.45724885 16.50158469 1.49731445 18.02636719 C1.55525203 20.22084222 1.61887795 22.41509068 1.68359375 24.609375 C1.70030624 25.2886908 1.71701874 25.96800659 1.73423767 26.66790771 C1.8358684 29.93086721 2.17761238 32.85110375 3 36 C2.7397104 38.34260643 2.40047444 40.67724823 2 43 C1.814375 44.134375 1.62875 45.26875 1.4375 46.4375 C1.2209375 47.7059375 1.2209375 47.7059375 1 49 C0.67 49 0.34 49 0 49 C0 32.83 0 16.66 0 0 Z " fill="#578895" transform="translate(145,216)"/>
<path d="M0 0 C2.89346614 2.89346614 2.46474352 5.984795 2.625 9.875 C2.66222168 10.64078369 2.69944336 11.40656738 2.73779297 12.19555664 C3.17796961 21.8824855 3.19393246 31.36325943 2 41 C1.67 41 1.34 41 1 41 C1 29.12 1 17.24 1 5 C0.01 4.67 -0.98 4.34 -2 4 C-1 1 -1 1 0 0 Z " fill="#101835" transform="translate(368,259)"/>
<path d="M0 0 C12.21 0 24.42 0 37 0 C37 0.33 37 0.66 37 1 C35.329375 1.2165625 35.329375 1.2165625 33.625 1.4375 C30.17857953 1.78372035 30.17857953 1.78372035 28 3 C25.66487041 2.67949202 23.33177975 2.34403308 21 2 C16.50952785 1.79177813 16.50952785 1.79177813 12.12109375 2.53515625 C9.5192389 3.10536017 7.3894043 2.87506104 4.75 2.5625 C3.85796875 2.46066406 2.9659375 2.35882813 2.046875 2.25390625 C1.37140625 2.17011719 0.6959375 2.08632812 0 2 C0 1.34 0 0.68 0 0 Z " fill="#5A7B87" transform="translate(211,193)"/>
<path d="M0 0 C0.33 0.66 0.66 1.32 1 2 C-4.51264817 11.11707198 -4.51264817 11.11707198 -9 13 C-13.07934128 13.11476408 -16.97831274 12.65726604 -21 12 C-21 11.67 -21 11.34 -21 11 C-20.34773438 10.89042969 -19.69546875 10.78085938 -19.0234375 10.66796875 C-13.94150211 9.74602472 -9.38133528 8.88526958 -5 6 C-3.24677063 3.46811352 -3.24677063 3.46811352 -2 1 C-1.34 0.67 -0.68 0.34 0 0 Z " fill="#A0ABAD" transform="translate(326,162)"/>
<path d="M0 0 C0 0.99 0 1.98 0 3 C-1.79296875 4.640625 -1.79296875 4.640625 -4.1875 6.25 C-4.96480469 6.79140625 -5.74210938 7.3328125 -6.54296875 7.890625 C-9.50446214 9.22776987 -10.94457187 8.93345229 -14 8 C-14 7.34 -14 6.68 -14 6 C-12.2335343 4.9923048 -10.46166177 3.99408286 -8.6875 3 C-7.20830078 2.1646875 -7.20830078 2.1646875 -5.69921875 1.3125 C-3 0 -3 0 0 0 Z " fill="#EEF5F8" transform="translate(256,200)"/>
<path d="M0 0 C2.00501867 3.007528 2.31806394 4.11231132 2.625 7.5625 C2.69976562 8.34753906 2.77453125 9.13257813 2.8515625 9.94140625 C3 12 3 12 3 14 C-1.2606496 15.8640342 -5.46120272 17.03271533 -10 18 C-10.66 17.67 -11.32 17.34 -12 17 C-10.56570999 16.32645501 -9.12742943 15.66140299 -7.6875 15 C-6.48673828 14.443125 -6.48673828 14.443125 -5.26171875 13.875 C-3 13 -3 13 0 13 C0 8.71 0 4.42 0 0 Z " fill="#0F171A" transform="translate(269,269)"/>
<path d="M0 0 C0.66 0.33 1.32 0.66 2 1 C-0.97 6.28 -3.94 11.56 -7 17 C-7.66 16.67 -8.32 16.34 -9 16 C-7.98583675 13.46459188 -6.97285141 10.93816154 -5.875 8.4375 C-4.77475683 5.80416916 -4.77475683 5.80416916 -5 2 C-4.360625 1.855625 -3.72125 1.71125 -3.0625 1.5625 C-1.02454854 1.18992819 -1.02454854 1.18992819 0 0 Z " fill="#3E535C" transform="translate(223,254)"/>
<path d="M0 0 C0.99 0 1.98 0 3 0 C3.33 3.3 3.66 6.6 4 10 C1 10 1 10 -2 8 C-2 6.68 -2 5.36 -2 4 C-2.66 3.67 -3.32 3.34 -4 3 C-3.01 2.67 -2.02 2.34 -1 2 C-0.67 1.34 -0.34 0.68 0 0 Z " fill="#C0CDD1" transform="translate(323,138)"/>
<path d="M0 0 C0.33 0.99 0.66 1.98 1 3 C-0.051875 3.721875 -1.10375 4.44375 -2.1875 5.1875 C-5.4835665 7.53226275 -8.2286754 10.06071633 -11 13 C-9.82043419 7.53110399 -8.50296387 4.64525646 -4 1 C-1.6875 0.1875 -1.6875 0.1875 0 0 Z " fill="#AFC2C6" transform="translate(159,193)"/>
<path d="M0 0 C1.32 0.33 2.64 0.66 4 1 C3.67 2.98 3.34 4.96 3 7 C2.01 7 1.02 7 0 7 C-1.4694809 8.76732099 -1.4694809 8.76732099 -2.6875 11 C-3.12449219 11.7425 -3.56148437 12.485 -4.01171875 13.25 C-4.33785156 13.8275 -4.66398438 14.405 -5 15 C-5.66 14.67 -6.32 14.34 -7 14 C-5.23570801 9.02790438 -2.6060834 4.56561939 0 0 Z " fill="#9CABAE" transform="translate(236,290)"/>
<path d="M0 0 C0 0.33 0 0.66 0 1 C-0.85464844 1.04898438 -1.70929688 1.09796875 -2.58984375 1.1484375 C-3.69457031 1.22320312 -4.79929688 1.29796875 -5.9375 1.375 C-7.03964844 1.44460937 -8.14179688 1.51421875 -9.27734375 1.5859375 C-10.17582031 1.72257813 -11.07429687 1.85921875 -12 2 C-12.33 2.66 -12.66 3.32 -13 4 C-12.34 3.67 -11.68 3.34 -11 3 C-8.3276379 2.86584528 -5.67749512 2.95681459 -3 3 C-3 3.33 -3 3.66 -3 4 C-4.41538717 4.33872513 -5.83237963 4.67074624 -7.25 5 C-8.03890625 5.185625 -8.8278125 5.37125 -9.640625 5.5625 C-12 6 -12 6 -16 6 C-16.33 5.34 -16.66 4.68 -17 4 C-17.66 3.67 -18.32 3.34 -19 3 C-13.10104429 -1.0449982 -6.92696672 -0.27748976 0 0 Z " fill="#869BA1" transform="translate(176,190)"/>
<path d="M0 0 C0.87454834 0.04713135 1.74909668 0.0942627 2.65014648 0.14282227 C4.06650391 0.21533203 4.06650391 0.21533203 5.51147461 0.28930664 C6.50469727 0.34538086 7.49791992 0.40145508 8.52124023 0.45922852 C9.51833008 0.51143555 10.51541992 0.56364258 11.54272461 0.61743164 C14.01501545 0.74755221 16.48694653 0.88253033 18.95874023 1.02172852 C18.95874023 1.35172852 18.95874023 1.68172852 18.95874023 2.02172852 C18.00161133 2.11260742 18.00161133 2.11260742 17.02514648 2.20532227 C16.19885742 2.28911133 15.37256836 2.37290039 14.52124023 2.45922852 C13.28567383 2.58104492 13.28567383 2.58104492 12.02514648 2.70532227 C9.97211998 2.81103666 9.97211998 2.81103666 8.95874023 4.02172852 C1.74691757 4.49463492 1.74691757 4.49463492 -1.54125977 2.52172852 C-2.03625977 2.02672852 -2.53125977 1.53172852 -3.04125977 1.02172852 C-2.04125977 0.02172852 -2.04125977 0.02172852 0 0 Z " fill="#11191F" transform="translate(303.041259765625,303.978271484375)"/>
<path d="M0 0 C0.66 0.66 1.32 1.32 2 2 C-2.0188515 3.81242323 -5.61110675 5.33501617 -10 6 C-10.33 4.35 -10.66 2.7 -11 1 C-7.26779887 0.12183503 -3.83453269 -0.25563551 0 0 Z " fill="#CAD5D7" transform="translate(307,138)"/>
<path d="M0 0 C2 3 2 3 1.625 5.1875 C1.41875 5.785625 1.2125 6.38375 1 7 C-0.0828125 7.061875 -0.0828125 7.061875 -1.1875 7.125 C-5.20827325 8.37590723 -6.41754887 10.7195891 -9 14 C-9.66 14 -10.32 14 -11 14 C-9.42219077 10.28954753 -7.09296752 7.70093616 -4.375 4.75 C-3.55773437 3.85796875 -2.74046875 2.9659375 -1.8984375 2.046875 C-1.27195312 1.37140625 -0.64546875 0.6959375 0 0 Z " fill="#11191C" transform="translate(349,201)"/>
<path d="M0 0 C-1.65 0.33 -3.3 0.66 -5 1 C-5.33 2.32 -5.66 3.64 -6 5 C-7.98 5.33 -9.96 5.66 -12 6 C-12.33 4.68 -12.66 3.36 -13 2 C-11.5882217 1.46605821 -10.17029756 0.94834896 -8.75 0.4375 C-7.96109375 0.14746094 -7.1721875 -0.14257812 -6.359375 -0.44140625 C-3.80896548 -1.04522837 -2.44677771 -0.8473932 0 0 Z " fill="#0A1216" transform="translate(230,321)"/>
<path d="M0 0 C1.98 1.65 3.96 3.3 6 5 C5.40072174 8.35595828 4.15377564 10.37801226 2 13 C2.33 11.02 2.66 9.04 3 7 C1.68 7 0.36 7 -1 7 C-0.67 4.69 -0.34 2.38 0 0 Z " fill="#4C6770" transform="translate(242,208)"/>
<path d="M0 0 C0.33 0.66 0.66 1.32 1 2 C0.67 2.66 0.34 3.32 0 4 C0.66 4 1.32 4 2 4 C2 4.66 2 5.32 2 6 C0.68 6.33 -0.64 6.66 -2 7 C-2.33 5.68 -2.66 4.36 -3 3 C-3.99 3 -4.98 3 -6 3 C-6 3.66 -6 4.32 -6 5 C-7.98 5.33 -9.96 5.66 -12 6 C-11.67 5.01 -11.34 4.02 -11 3 C-8.49609375 2.05078125 -8.49609375 2.05078125 -5.4375 1.3125 C-4.42558594 1.06113281 -3.41367188 0.80976563 -2.37109375 0.55078125 C-1.58863281 0.36902344 -0.80617187 0.18726563 0 0 Z " fill="#090F11" transform="translate(251,313)"/>
<path d="M0 0 C0.928125 0.5259375 0.928125 0.5259375 1.875 1.0625 C2.57625 1.371875 3.2775 1.68125 4 2 C4.66 1.67 5.32 1.34 6 1 C8.125 1.9375 8.125 1.9375 10 3 C9.67 4.32 9.34 5.64 9 7 C1.375 5.125 1.375 5.125 -2 4 C-1.34 2.68 -0.68 1.36 0 0 Z " fill="#899C9D" transform="translate(289,232)"/>
<path d="M0 0 C0.79560764 2.91499943 1.25322499 5.74561419 1.5625 8.75 C1.64628906 9.54921875 1.73007813 10.3484375 1.81640625 11.171875 C1.87699219 11.77515625 1.93757812 12.3784375 2 13 C1.01 13.66 0.02 14.32 -1 15 C-1.144375 14.2575 -1.28875 13.515 -1.4375 12.75 C-1.90050901 10.09703494 -1.90050901 10.09703494 -2.75 8.0625 C-3.140526 4.84066053 -1.55863615 2.74319962 0 0 Z " fill="#64909D" transform="translate(148,202)"/>
<path d="M0 0 C2.31 0.66 4.62 1.32 7 2 C5.625 3.5 5.625 3.5 4 5 C3.34 5 2.68 5 2 5 C1.67 6.32 1.34 7.64 1 9 C0.34 9 -0.32 9 -1 9 C-1.125 2.25 -1.125 2.25 0 0 Z " fill="#CBD5D7" transform="translate(268,209)"/>
<path d="M0 0 C0.99 0.99 1.98 1.98 3 3 C1.68 5.31 0.36 7.62 -1 10 C-1.99 9.34 -2.98 8.68 -4 8 C-3.67 5.69 -3.34 3.38 -3 1 C-2.01 0.67 -1.02 0.34 0 0 Z " fill="#3A4C53" transform="translate(206,280)"/>
<path d="M0 0 C0.66 0.66 1.32 1.32 2 2 C1.67 2.66 1.34 3.32 1 4 C0.34 4 -0.32 4 -1 4 C-1.66 5.32 -2.32 6.64 -3 8 C-3.99 8 -4.98 8 -6 8 C-6 4.45176068 -5.32265612 3.58072903 -3 1 C-2.01 0.67 -1.02 0.34 0 0 Z " fill="#DCE3E3" transform="translate(221,266)"/>
<path d="M0 0 C-0.7115625 0.6496875 -0.7115625 0.6496875 -1.4375 1.3125 C-3.23686957 3.02309613 -3.23686957 3.02309613 -4 6 C-4.66 5.34 -5.32 4.68 -6 4 C-7.32 5.32 -8.64 6.64 -10 8 C-10.33 7.34 -10.66 6.68 -11 6 C-5.28169014 -1.76056338 -5.28169014 -1.76056338 0 0 Z " fill="#4A7A8A" transform="translate(307,257)"/>
<path d="M0 0 C1 3 1 3 0.07421875 5.04296875 C-0.61220703 6.10451172 -0.61220703 6.10451172 -1.3125 7.1875 C-1.76238281 7.90292969 -2.21226562 8.61835938 -2.67578125 9.35546875 C-3.11277344 9.89816406 -3.54976562 10.44085938 -4 11 C-4.66 11 -5.32 11 -6 11 C-5.43518386 7.04628701 -4.28003407 4.28324906 -2 1 C-1.34 0.67 -0.68 0.34 0 0 Z " fill="#EBF3F5" transform="translate(210,282)"/>
<path d="M0 0 C0.33 0 0.66 0 1 0 C1 4.29 1 8.58 1 13 C-0.32 12.67 -1.64 12.34 -3 12 C-2.67 9.03 -2.34 6.06 -2 3 C-1.34 3 -0.68 3 0 3 C0 2.01 0 1.02 0 0 Z " fill="#94A2A3" transform="translate(285,239)"/>
<path d="M0 0 C1.258125 0.33 2.51625 0.66 3.8125 1 C6.38987302 1.67603227 8.30212925 2 11 2 C11 1.34 11 0.68 11 0 C12.65 0.33 14.3 0.66 16 1 C13.25881058 3.74118942 11.02577449 3.68514807 7.265625 4.04296875 C4.15598982 3.98399291 2.35640268 2.97633773 0 1 C0 0.67 0 0.34 0 0 Z " fill="#324853" transform="translate(157,360)"/>
<path d="M0 0 C0.99 0.33 1.98 0.66 3 1 C2.04578192 2.14926266 1.08647955 3.29430541 0.125 4.4375 C-0.40867187 5.07558594 -0.94234375 5.71367187 -1.4921875 6.37109375 C-3 8 -3 8 -5 9 C-5.33 7.02 -5.66 5.04 -6 3 C-5.195625 2.690625 -4.39125 2.38125 -3.5625 2.0625 C-1.10919595 1.23664655 -1.10919595 1.23664655 0 0 Z " fill="#11252C" transform="translate(298,254)"/>
<path d="M0 0 C1.32 0.66 2.64 1.32 4 2 C2.35 4.97 0.7 7.94 -1 11 C-1.66 10.67 -2.32 10.34 -3 10 C-2.625 7.5625 -2.625 7.5625 -2 5 C-1.34 4.67 -0.68 4.34 0 4 C0 2.68 0 1.36 0 0 Z " fill="#3A4D55" transform="translate(211,270)"/>
<path d="M0 0 C2.64 0 5.28 0 8 0 C8 0.66 8 1.32 8 2 C6.56445975 2.50559908 5.1264798 3.0042749 3.6875 3.5 C2.48673828 3.91765625 2.48673828 3.91765625 1.26171875 4.34375 C-1 5 -1 5 -4 5 C-4 4.34 -4 3.68 -4 3 C-3.01 2.67 -2.02 2.34 -1 2 C-0.67 1.34 -0.34 0.68 0 0 Z " fill="#7C8B8C" transform="translate(238,313)"/>
<path d="M0 0 C2 2 2 2 2.1953125 5.4765625 C2.18201493 6.85950968 2.15816232 8.24238654 2.125 9.625 C2.11597656 10.33140625 2.10695313 11.0378125 2.09765625 11.765625 C2.07407603 13.51056098 2.03820461 15.25532295 2 17 C1.67 17 1.34 17 1 17 C1 13.04 1 9.08 1 5 C0.01 4.67 -0.98 4.34 -2 4 C-1 1 -1 1 0 0 Z " fill="#172430" transform="translate(368,259)"/>
<path d="M0 0 C1.41623216 -0.05447047 2.83308191 -0.09300508 4.25 -0.125 C5.03890625 -0.14820313 5.8278125 -0.17140625 6.640625 -0.1953125 C9 0 9 0 13 2 C8.38 2.66 3.76 3.32 -1 4 C-0.67 2.68 -0.34 1.36 0 0 Z " fill="#122C36" transform="translate(303,251)"/>
<path d="M0 0 C0.66 0 1.32 0 2 0 C1.49202991 4.3177458 0.80317221 8.03302114 -1 12 C-1.33 12 -1.66 12 -2 12 C-2.05395478 10.37536158 -2.09277195 8.75021459 -2.125 7.125 C-2.14820313 6.22007812 -2.17140625 5.31515625 -2.1953125 4.3828125 C-2 2 -2 2 0 0 Z " fill="#96A3A6" transform="translate(355,182)"/>
<path d="M0 0 C1.32 0.33 2.64 0.66 4 1 C4 1.66 4 2.32 4 3 C3.34 3.66 2.68 4.32 2 5 C0.97695052 6.65261839 -0.02616054 8.31791365 -1 10 C-1.66 9.67 -2.32 9.34 -3 9 C-2 6 -1 3 0 0 Z " fill="#A1B0B2" transform="translate(244,276)"/>
<path d="M0 0 C0.99 0.66 1.98 1.32 3 2 C1.35 4.64 -0.3 7.28 -2 10 C-2.66 9.67 -3.32 9.34 -4 9 C-3.34 7.35 -2.68 5.7 -2 4 C-1.34 4 -0.68 4 0 4 C0 2.68 0 1.36 0 0 Z " fill="#405560" transform="translate(228,243)"/>
<path d="M0 0 C0.66 0.33 1.32 0.66 2 1 C1.67 1.99 1.34 2.98 1 4 C-0.9609375 4.765625 -0.9609375 4.765625 -3.375 5.25 C-4.16648437 5.42015625 -4.95796875 5.5903125 -5.7734375 5.765625 C-8 6 -8 6 -11 5 C-10 4 -10 4 -6.4375 3.9375 C-5.303125 3.958125 -4.16875 3.97875 -3 4 C-3 3.34 -3 2.68 -3 2 C-2.01 1.34 -1.02 0.68 0 0 Z " fill="#8A999B" transform="translate(318,220)"/>
<path d="M0 0 C0.66 0.33 1.32 0.66 2 1 C0.38405168 3.04119788 -1.2856382 5.04072937 -3 7 C-3.66 7 -4.32 7 -5 7 C-5 7.66 -5 8.32 -5 9 C-5.99 9 -6.98 9 -8 9 C-8 8.34 -8 7.68 -8 7 C-7.34 7 -6.68 7 -6 7 C-6 6.34 -6 5.68 -6 5 C-4.04072937 3.2856382 -2.04119788 1.61594832 0 0 Z " fill="#7D8B8D" transform="translate(267,123)"/>
<path d="M0 0 C-3.79541663 2.21399303 -7.75629421 3.00980198 -12 4 C-10.5505618 0.25561798 -10.5505618 0.25561798 -8.25 -0.8125 C-5.36824559 -1.0526462 -2.82252185 -0.57733402 0 0 Z " fill="#9DABAD" transform="translate(282,252)"/>
<path d="M0 0 C0.33 0 0.66 0 1 0 C1.25 2.25 1.25 2.25 1 5 C-1 7.3125 -1 7.3125 -3 9 C-3 4.73012377 -2.36301527 3.40274199 0 0 Z " fill="#A3AFB4" transform="translate(233,296)"/>
<path d="M0 0 C2.475 0.99 2.475 0.99 5 2 C4.01 3.485 4.01 3.485 3 5 C3 4.34 3 3.68 3 3 C2.01 3 1.02 3 0 3 C-0.66 4.32 -1.32 5.64 -2 7 C-2.66 6.01 -3.32 5.02 -4 4 C-2.66666667 2.66666667 -1.33333333 1.33333333 0 0 Z " fill="#A4B4B6" transform="translate(251,267)"/>
<path d="M0 0 C0.66 0.33 1.32 0.66 2 1 C2 1.66 2 2.32 2 3 C-2.75 5 -2.75 5 -5 5 C-4.67 3.68 -4.34 2.36 -4 1 C-2.02 1.495 -2.02 1.495 0 2 C0 1.34 0 0.68 0 0 Z " fill="#DDE4E6" transform="translate(229,252)"/>
<path d="M0 0 C1.485 0.99 1.485 0.99 3 2 C2.67 2.99 2.34 3.98 2 5 C1.01 5 0.02 5 -1 5 C-0.67 3.35 -0.34 1.7 0 0 Z M-3 6 C-2.34 6.66 -1.68 7.32 -1 8 C-1.99 8.33 -2.98 8.66 -4 9 C-3.67 8.01 -3.34 7.02 -3 6 Z " fill="#ABBABC" transform="translate(265,243)"/>
<path d="M0 0 C0.66 0 1.32 0 2 0 C2.33 1.65 2.66 3.3 3 5 C2.34 5 1.68 5 1 5 C1.33 6.32 1.66 7.64 2 9 C1.34 9 0.68 9 0 9 C0 6.03 0 3.06 0 0 Z " fill="#0F181F" transform="translate(291,296)"/>
<path d="M0 0 C0.556875 0.226875 1.11375 0.45375 1.6875 0.6875 C0.6975 0.6875 -0.2925 0.6875 -1.3125 0.6875 C-1.3125 1.3475 -1.3125 2.0075 -1.3125 2.6875 C-3.2925 3.6775 -5.2725 4.6675 -7.3125 5.6875 C-7.3125 4.6975 -7.3125 3.7075 -7.3125 2.6875 C-3.28618421 -0.44407895 -3.28618421 -0.44407895 0 0 Z " fill="#709CA8" transform="translate(305.3125,254.3125)"/>
<path d="M0 0 C2 3 2 3 1.625 5.1875 C1.41875 5.785625 1.2125 6.38375 1 7 C0.01 6.67 -0.98 6.34 -2 6 C-1.125 1.125 -1.125 1.125 0 0 Z " fill="#080E13" transform="translate(349,201)"/>
<path d="M0 0 C0.66 0.33 1.32 0.66 2 1 C2 2.32 2 3.64 2 5 C0 6.75 0 6.75 -2 8 C-1.125 2.25 -1.125 2.25 0 0 Z " fill="#1B2528" transform="translate(212,314)"/>
<path d="M0 0 C0.928125 0.5259375 0.928125 0.5259375 1.875 1.0625 C2.57625 1.371875 3.2775 1.68125 4 2 C4.66 1.67 5.32 1.34 6 1 C5.67 1.99 5.34 2.98 5 4 C3.02 4.33 1.04 4.66 -1 5 C-1 2 -1 2 0 0 Z " fill="#93A5A4" transform="translate(289,232)"/>
<path d="M0 0 C0.99 0 1.98 0 3 0 C3 2.31 3 4.62 3 7 C0.7522025 4.94766315 -0.0022242 3.99332739 -1 1 C-0.67 0.67 -0.34 0.34 0 0 Z " fill="#D4E3E8" transform="translate(252,192)"/>
</svg>
